<?xml version="1.0" encoding="UTF-8"?>
<svg version="1.1" xmlns="http://www.w3.org/2000/svg" width="512" height="512">
    <path d="M0 0 C1.29672176 -0.00445784 2.59344351 -0.00891569 3.92945987 -0.01350862 C5.3821836 -0.01341931 6.83490733 -0.01322944 8.28763103 -0.01294994 C9.82022037 -0.01624749 11.35280883 -0.01997283 12.88539618 -0.02409142 C17.11261118 -0.03413183 21.33981199 -0.03783148 25.56703722 -0.04048073 C30.1199753 -0.04437771 34.67290206 -0.05395641 39.22583294 -0.0626936 C50.22845278 -0.08247446 61.23107356 -0.09252595 72.23370674 -0.10142139 C77.41079759 -0.10580135 82.58788742 -0.11116888 87.76497746 -0.11641026 C104.96723023 -0.13342362 122.16948235 -0.14791904 139.37174225 -0.155159 C143.83782038 -0.15706899 148.3038985 -0.15898931 152.76997662 -0.16094494 C154.43507583 -0.16167055 154.43507583 -0.16167055 156.1338134 -0.16241082 C174.12668335 -0.17071576 192.11948691 -0.19606003 210.11232785 -0.22852562 C228.57116922 -0.26156144 247.02997681 -0.27960458 265.48884791 -0.28280324 C275.85854246 -0.28497149 286.22814018 -0.29376612 296.59780598 -0.31926441 C305.42686654 -0.34092391 314.25580677 -0.3490453 323.08489088 -0.33929763 C327.59183631 -0.33473919 332.09853323 -0.33672838 336.60544491 -0.35605907 C340.72912832 -0.37359378 344.85238013 -0.37277258 348.97606751 -0.35716178 C350.47003547 -0.35477088 351.96403257 -0.35918548 353.45795581 -0.37099043 C355.48488258 -0.38601856 357.51195602 -0.37409612 359.53889465 -0.36076355 C361.22949209 -0.36222876 361.22949209 -0.36222876 362.954243 -0.36372358 C366.63887557 0.24705 368.30212333 1.56075583 370.95820904 4.13422108 C372.81676185 7.85132671 372.53729343 12.08699389 371.95820904 16.13422108 C369.43144865 19.48047132 367.91887362 20.81399955 363.95820904 22.13422108 C360.970145 22.22852884 358.00568661 22.26447287 355.0176115 22.25447559 C354.0921654 22.25533002 353.16671929 22.25618444 352.21322936 22.25706476 C349.09931318 22.25871734 345.98545037 22.25320178 342.87153912 22.24774647 C340.64452395 22.24746452 338.41750869 22.24762247 336.19049358 22.24818897 C330.13300508 22.24847666 324.07553626 22.24258454 318.01805234 22.23561502 C311.6919278 22.22937672 305.36580285 22.2287773 299.03967571 22.22758961 C288.41787109 22.22483158 277.79607426 22.21857932 267.17427349 22.20966053 C256.23319313 22.2004832 245.29211474 22.19340393 234.3510313 22.18915272 C233.67675847 22.18888999 233.00248564 22.18862727 232.3077803 22.18835659 C228.92519212 22.18705156 225.54260391 22.18578785 222.1600157 22.18454468 C194.09274064 22.17417595 166.02547789 22.15573972 137.95820904 22.13422108 C137.95820904 35.99422108 137.95820904 49.85422108 137.95820904 64.13422108 C143.60301373 64.07621326 149.24781841 64.01820545 155.06367779 63.95843983 C158.64118051 63.93289005 162.21857063 63.90882047 165.79609966 63.89008045 C171.47382773 63.86019808 177.15115238 63.82485948 182.82857037 63.75702381 C187.40623994 63.70267099 191.98347691 63.67279364 196.56144428 63.65983486 C198.30739242 63.65060081 200.05331704 63.63256846 201.79908085 63.60557079 C204.24611603 63.56923544 206.69136713 63.56427737 209.13862896 63.56659412 C209.85936092 63.54861774 210.58009289 63.53064137 211.32266521 63.51212025 C215.24124622 63.55222449 216.81736074 64.0181973 219.88443279 66.54469776 C222.79906463 70.18419701 223.30324271 72.38585658 223.24336529 77.09906483 C222.79142208 80.3245773 221.2780893 81.94322305 218.95820904 84.13422108 C215.63663722 86.22474968 213.01350915 86.38165044 209.1242857 86.37473011 C207.93239132 86.37747944 206.74049694 86.38022877 205.51248455 86.38306141 C203.55637501 86.37227558 203.55637501 86.37227558 201.5607481 86.36127186 C200.17101328 86.3607076 198.78127786 86.3610246 197.39154339 86.36215687 C193.62118709 86.3627308 189.85095799 86.35096998 186.08063126 86.33700895 C182.13950082 86.32450833 178.19836748 86.32333162 174.25722027 86.32095814 C166.79518104 86.3147414 159.3332004 86.29832797 151.87118697 86.27825916 C143.37549626 86.25590618 134.87980275 86.24490824 126.38408995 86.23486829 C108.90876242 86.21396191 91.43349192 86.17878217 73.95820904 86.13422108 C73.96820179 87.95919369 73.96820179 87.95919369 73.97839642 89.82103443 C74.03919515 101.2833257 74.0841758 112.74558428 74.11364555 124.20800018 C74.12930553 130.10103733 74.15055014 135.99394436 74.1845274 141.88690662 C74.21710859 147.5732835 74.23505955 153.25953518 74.24284077 158.94599819 C74.24838647 161.1161423 74.25921577 163.28627951 74.27539921 165.45637035 C74.29715668 168.49456468 74.30017663 171.53224075 74.29878521 174.57050037 C74.30957104 175.46889637 74.32035686 176.36729237 74.33146954 177.29291248 C74.30761693 182.10196406 74.02092711 185.19347187 70.95820904 189.13422108 C70.50188091 189.72332264 70.04555279 190.3124242 69.57539654 190.91937733 C66.74161389 193.04813676 63.82433839 192.59227795 60.40742779 192.49750233 C57.0037542 191.99265122 55.24964235 190.647406 52.95820904 188.13422108 C51.75488924 185.72758149 51.82460136 184.21206387 51.81103802 181.52354908 C51.80388271 180.55198368 51.79672741 179.58041828 51.78935528 178.57941151 C51.78666637 177.50977161 51.78397747 176.44013172 51.78120708 175.3380785 C51.77135029 173.65256634 51.77135029 173.65256634 51.76129436 171.93300343 C51.74152869 168.20189828 51.72989205 164.47083342 51.71992779 160.73968983 C51.71585226 159.4679875 51.71177673 158.19628517 51.70757771 156.88604641 C51.68885802 150.85096353 51.67429478 144.81590517 51.66596574 138.780801 C51.65619365 131.81513529 51.62987546 124.84978738 51.58946484 117.88423365 C51.55566335 111.85075263 51.54382053 105.81742588 51.53976154 99.78384304 C51.53488116 97.21736272 51.52322623 94.65088615 51.50472355 92.08446789 C51.48045576 88.49556832 51.4812749 84.90750322 51.48823833 81.31854725 C51.47542828 80.25498005 51.46261822 79.19141285 51.44941998 78.09561634 C51.50048779 70.88809224 51.50048779 70.88809224 53.86258221 66.99770069 C57.20177843 64.02841055 59.11713235 64.01118844 63.50947857 64.02069569 C64.67053112 64.02077122 65.83158367 64.02084675 67.02781963 64.02092457 C68.28617626 64.02608585 69.54453289 64.03124714 70.84102154 64.03656483 C72.12556225 64.03797977 73.41010296 64.03939472 74.73356915 64.04085255 C78.14977745 64.04467197 81.5659433 64.05449734 84.98213482 64.06555653 C88.46764319 64.07578301 91.95315863 64.08040758 95.43867779 64.08539295 C102.27855905 64.09558955 109.11832368 64.11516257 115.95820904 64.13422108 C115.95820904 50.27422108 115.95820904 36.41422108 115.95820904 22.13422108 C80.97820904 22.13422108 45.99820904 22.13422108 9.95820904 22.13422108 C9.95820904 127.40422108 9.95820904 232.67422108 9.95820904 341.13422108 C23.81820904 341.13422108 37.67820904 341.13422108 51.95820904 341.13422108 C51.91180279 335.48941639 51.86539654 329.8446117 51.81758404 324.02875233 C51.79714427 320.45125996 51.77788847 316.87383966 51.76289654 313.29633045 C51.738991 307.618688 51.71072001 301.94130374 51.65645123 296.26385975 C51.61296912 291.68620634 51.58906681 287.10882983 51.57870007 282.53098583 C51.57131293 280.78506264 51.55688746 279.03915449 51.53528881 277.29334927 C51.50622275 274.8465009 51.50225427 272.40079457 51.50410748 269.95380116 C51.48253582 268.87270321 51.48253582 268.87270321 51.46052837 267.7697649 C51.49998914 262.95013147 52.53931568 260.51586601 55.95820904 257.13422108 C58.59536 255.8156456 60.55653543 256.01430403 63.50947857 256.02069569 C64.67053112 256.02077122 65.83158367 256.02084675 67.02781963 256.02092457 C68.28617626 256.02608585 69.54453289 256.03124714 70.84102154 256.03656483 C72.12556225 256.03797977 73.41010296 256.03939472 74.73356915 256.04085255 C78.14977745 256.04467197 81.5659433 256.05449734 84.98213482 256.06555653 C88.4676433 256.07578301 91.95315863 256.08035282 95.43867779 256.08539295 C102.27853899 256.09612012 109.11837198 256.11318966 115.95820904 256.13422108 C115.93202496 255.03956532 115.90584087 253.94490955 115.87886333 252.81708241 C115.78817685 248.74518849 115.73089355 244.67338332 115.68355083 240.60077381 C115.65844843 238.84020431 115.62435876 237.07973861 115.58101177 235.31952381 C115.52016789 232.78483929 115.49195791 230.25153533 115.46992779 227.71625233 C115.44412136 226.93272892 115.41831493 226.14920551 115.39172649 225.34193897 C115.38955495 221.08464307 115.58152886 219.59990069 118.36372662 216.16034412 C122.01537681 213.30864139 124.2361833 212.78952202 128.92305279 212.84906483 C132.14856526 213.30100803 133.76721101 214.81434081 135.95820904 217.13422108 C138.04873765 220.45579289 138.2056384 223.07892097 138.19871807 226.96814442 C138.20285056 228.75227552 138.20285056 228.75227552 138.20706654 230.57244968 C138.19627221 232.53226969 138.19627221 232.53226969 138.18525982 234.53168201 C138.18464703 235.94390445 138.18491433 237.35612749 138.18599033 238.76834965 C138.18644175 242.54932503 138.17485227 246.33017376 138.16076946 250.11111927 C138.1493774 253.65935127 138.14884311 257.2075525 138.14741802 260.75580311 C138.13692445 271.1319592 138.10900214 281.50809174 138.08320904 291.88422108 C138.04195904 315.06672108 138.00070904 338.24922108 137.95820904 362.13422108 C207.91820904 362.13422108 277.87820904 362.13422108 349.95820904 362.13422108 C349.95820904 329.79422108 349.95820904 297.45422108 349.95820904 264.13422108 C353.77351247 257.77538203 353.77351247 257.77538203 355.95820904 256.13422108 C360.7901808 255.2251552 364.81721889 255.43565568 369.02070904 258.00922108 C371.81395582 261.07278206 372.08497045 262.69931671 372.10538006 266.74489307 C372.11611301 268.20224117 372.11611301 268.20224117 372.1270628 269.68903065 C372.1297517 270.75867054 372.13244061 271.82831043 372.13521099 272.93036366 C372.14178219 274.05403843 372.14835339 275.1777132 372.15512371 276.33543873 C372.17488939 280.06654387 372.18652602 283.79760873 372.19649029 287.52875233 C372.20056581 288.80045465 372.20464134 290.07215698 372.20884037 291.38239574 C372.22756005 297.41747863 372.24212329 303.45253698 372.25045234 309.48764116 C372.26022442 316.45330687 372.28654261 323.41865477 372.32695323 330.3842085 C372.36075472 336.41768952 372.37259755 342.45101628 372.37665653 348.48459911 C372.38153691 351.05107943 372.39319184 353.617556 372.41169453 356.18397427 C372.43596232 359.77287384 372.43514318 363.36093893 372.42817974 366.94989491 C372.4409898 368.0134621 372.45379986 369.0770293 372.4669981 370.17282581 C372.41593028 377.38034991 372.41593028 377.38034991 370.05383587 381.27074146 C367.18026209 383.82598941 365.66131109 384.25936075 361.91544151 384.26844215 C360.63917083 384.27512892 360.63917083 384.27512892 359.3371169 384.28195077 C358.39696179 384.28176641 357.45680669 384.28158205 356.48816204 384.2813921 C355.49359424 384.28506879 354.49902645 384.28874547 353.47432023 384.29253358 C350.12023052 384.3036033 346.76617174 384.3074198 343.41206646 384.31122303 C341.01597272 384.31748513 338.61987995 384.3241317 336.22378826 384.33113575 C329.01801327 384.35038688 321.81224081 384.36096707 314.60644791 384.36986354 C311.2145435 384.3742451 307.82264066 384.37961223 304.4307375 384.38485241 C293.15784784 384.40186507 281.88495916 384.41635992 270.61205864 384.42360115 C267.68601957 384.4255111 264.7599805 384.42743142 261.83394146 384.42938709 C261.10667401 384.42987083 260.37940656 384.43035457 259.6301007 384.43085297 C247.84507938 384.43915581 236.06015947 384.46449679 224.27518245 384.49696777 C212.18057021 384.53002069 200.08600955 384.54804829 187.9913519 384.55124539 C181.19868197 384.55341209 174.40615994 384.56218396 167.61353397 384.58770657 C161.22534172 384.61165388 154.83734366 384.61525035 148.44911289 384.60494518 C146.10170641 384.60444792 143.75428712 384.61082395 141.40692043 384.62450123 C138.20735937 384.64210398 135.00876742 384.63517084 131.80920696 384.62196827 C130.40901256 384.63842214 130.40901256 384.63842214 128.98053139 384.65520841 C124.77103007 384.61314188 122.54831394 384.50250361 118.90502167 382.22873688 C116.25083321 379.37317719 115.8332068 377.88600595 115.83795452 374.09732533 C115.83589252 372.83107822 115.83589252 372.83107822 115.83378887 371.53925037 C115.83918179 370.14742542 115.83918179 370.14742542 115.84468365 368.7274828 C115.84453762 367.75183369 115.84439159 366.77618458 115.84424114 365.77097034 C115.84493968 362.53526073 115.85272937 359.29960817 115.86055279 356.06390858 C115.86241717 353.82474264 115.86384098 351.58557629 115.86484051 349.3464098 C115.86866405 343.44449207 115.87849297 337.54259883 115.88954449 331.6406908 C115.89976209 325.62161052 115.90433888 319.60252628 115.90938091 313.58343983 C115.92011537 301.76702107 115.93771087 289.95062694 115.95820904 278.13422108 C102.09820904 278.13422108 88.23820904 278.13422108 73.95820904 278.13422108 C73.95820904 326.97422108 73.95820904 375.81422108 73.95820904 426.13422108 C88.68703716 426.08781483 103.41586529 426.04140858 118.59102154 425.99359608 C127.9061285 425.97316487 137.22121927 425.95374423 146.53633404 425.93890858 C161.33098668 425.91515706 176.12554833 425.88720738 190.9201231 425.83246326 C201.69405684 425.79261564 212.46791688 425.76679301 223.24192226 425.7578671 C228.9475958 425.75264888 234.6530585 425.74037033 240.35866451 425.71130085 C245.72827728 425.6841647 251.09759221 425.67577253 256.46726704 425.68179035 C258.43853339 425.68068932 260.40980964 425.67272484 262.38101673 425.65739918 C265.07240711 425.63749949 267.7626728 425.64228179 270.45408916 425.65320301 C271.23425652 425.64155164 272.01442387 425.62990028 272.81823266 425.61789584 C278.01405659 425.67489052 280.97468661 426.82046708 284.95820904 430.13422108 C287.42604063 433.83596847 287.63893636 436.83915583 286.95820904 441.13422108 C283.95820904 446.63422108 283.95820904 446.63422108 280.95820904 448.13422108 C278.05956533 448.23895317 275.18458461 448.28201474 272.28540325 448.2813921 C271.37659005 448.28506879 270.46777686 448.28874547 269.53142387 448.29253358 C266.46754391 448.30360037 263.40369782 448.3074193 260.33980083 448.31122303 C258.15060092 448.31748536 255.96140207 448.32413195 253.7722044 448.33113575 C247.81143711 448.34856559 241.85067786 448.35910266 235.88989139 448.36734128 C232.16877937 448.37248663 228.44766988 448.37856253 224.72655964 448.38485241 C213.76034477 448.40281524 202.79413453 448.41719424 191.82790755 448.42502881 C189.8206415 448.42646733 187.81337546 448.4279187 185.80610943 448.42938709 C185.14164489 448.42987083 184.47718035 448.43035457 183.79258052 448.43085297 C173.02603251 448.43915524 162.25959553 448.46449532 151.49309602 448.49696777 C140.44261388 448.53002538 129.39219109 448.54771583 118.34165984 448.55124539 C112.13583902 448.55360037 105.93019369 448.5626191 99.72441959 448.58770657 C93.88775468 448.61092032 88.05138162 448.61524746 82.21468258 448.60494518 C80.07045746 448.6044481 77.9262183 448.61081905 75.78203678 448.62450123 C72.85832653 448.64211627 69.93567554 448.63516512 67.01196575 448.62196827 C65.73433622 448.63842214 65.73433622 448.63842214 64.43089598 448.65520841 C60.40437031 448.61122324 58.43704769 448.43802067 54.95484924 446.22873688 C51.46380475 442.56656088 51.82100286 439.47346173 51.84468365 434.65521717 C51.84453762 433.88439304 51.84439159 433.11356892 51.84424114 432.31938648 C51.84493914 429.76544879 51.85272628 427.21158357 51.86055279 424.65765858 C51.86241737 422.88931792 51.86384108 421.12097674 51.86484051 419.35263538 C51.86866254 414.69357348 51.87849016 410.03454265 51.88954449 405.37549305 C51.9015617 399.78796499 51.90616234 394.20042656 51.9119978 388.61288929 C51.92170207 380.11997826 51.94086082 371.62713544 51.95820904 363.13422108 C38.09820904 363.13422108 24.23820904 363.13422108 9.95820904 363.13422108 C9.95820904 405.04422108 9.95820904 446.95422108 9.95820904 490.13422108 C35.0289384 489.97599103 35.0289384 489.97599103 60.09932232 489.77386951 C64.95991802 489.75580311 64.95991802 489.75580311 67.23894024 489.75244617 C68.82288901 489.74632361 70.4068197 489.73229607 71.99064922 489.71191883 C74.39699216 489.68252016 76.80220097 489.67860076 79.20869732 489.68011951 C80.2583602 489.65853086 80.2583602 489.65853086 81.3292284 489.63650608 C86.31669246 489.67847455 89.12641357 491.00117286 92.95820904 494.13422108 C95.42604063 497.83596847 95.63893636 500.83915583 94.95820904 505.13422108 C91.95820904 510.63422108 91.95820904 510.63422108 88.95820904 512.13422108 C85.99469408 512.24859145 83.05415518 512.30209547 80.08980083 512.31122303 C78.71152615 512.32107983 78.71152615 512.32107983 77.30540752 512.33113575 C74.25608018 512.35089213 71.20680211 512.36253626 68.15742779 512.37250233 C66.59740001 512.37861562 66.59740001 512.37861562 65.00585651 512.38485241 C59.50177616 512.40572265 53.99772081 512.42002052 48.49360943 512.42938709 C42.80377248 512.44045642 37.11432609 512.47485983 31.4246273 512.51455879 C27.05374701 512.54068294 22.68296037 512.54907518 18.31200886 512.55266857 C16.21442621 512.55754502 14.11684804 512.56918897 12.01934147 512.58770657 C9.08417825 512.61200945 6.1500335 512.61114913 3.21480083 512.60419178 C2.34759914 512.61700184 1.48039745 512.6298119 0.58691692 512.64301014 C-3.49140077 512.60775791 -5.52985386 512.45746621 -9.05782795 510.22984791 C-12.64387172 506.44197006 -12.18527635 503.06074491 -12.17601204 498.09340668 C-12.17836427 497.24841013 -12.1807165 496.40341358 -12.18314001 495.53281108 C-12.18985488 492.67033611 -12.18937104 489.80790628 -12.18896198 486.94542408 C-12.19225905 484.88486054 -12.19598429 482.82429765 -12.20010346 480.76373559 C-12.21014929 475.07711948 -12.21384439 469.39051393 -12.21649277 463.7038902 C-12.22038814 457.58038689 -12.22996694 451.456892 -12.23870564 445.33339405 C-12.25755551 431.23361721 -12.26772891 417.1338423 -12.27616632 403.0340564 C-12.28037033 396.06977373 -12.28559262 389.10549194 -12.29085084 382.14121 C-12.30874171 358.31191034 -12.32373903 334.48261043 -12.33117104 310.65330505 C-12.3316458 309.15686306 -12.33212168 307.66042107 -12.3325987 306.16397907 C-12.33283507 305.42186301 -12.33307145 304.67974695 -12.33331499 303.91514252 C-12.33451621 300.15507951 -12.33573166 296.3950165 -12.33695698 292.6349535 C-12.33719713 291.88875172 -12.33743728 291.14254994 -12.3376847 290.37373599 C-12.34558053 266.17112282 -12.36901785 241.96855861 -12.40151292 217.76596682 C-12.43578861 192.19057627 -12.45552004 166.61521437 -12.45881528 141.03980047 C-12.45923283 138.23377819 -12.4597124 135.42775593 -12.46023846 132.62173367 C-12.46042324 131.58531598 -12.46042324 131.58531598 -12.46061176 130.52796056 C-12.46294654 119.39521037 -12.47862185 108.26251693 -12.4990803 97.12978699 C-12.51930739 85.94577792 -12.52449621 74.76183619 -12.51530967 63.57780596 C-12.51074796 57.51548002 -12.51275945 51.45333884 -12.53207111 45.39103794 C-12.54958227 39.84626618 -12.54880371 34.30181561 -12.53317382 28.75704101 C-12.53077933 26.74625412 -12.53521557 24.73544567 -12.54700247 22.72469189 C-12.56198951 20.00025165 -12.55254093 17.27696902 -12.53677559 14.5525589 C-12.5469978 13.76409294 -12.55722 12.97562698 -12.56775197 12.16326812 C-12.52043136 8.4400579 -12.17012345 6.33377236 -10.13585442 3.17057496 C-6.73039442 -0.14103514 -4.65975559 0.00739789 0 0 Z " fill="#000000" transform="translate(12.041790962219238,-0.13422107696533203)"/>
    <path d="M0 0 C1.53718437 -0.01925285 1.53718437 -0.01925285 3.10542297 -0.03889465 C4.21685165 -0.04628159 5.32828033 -0.05366852 6.47338867 -0.0612793 C7.61289474 -0.06935104 8.75240082 -0.07742279 9.92643738 -0.08573914 C12.34156773 -0.09958792 14.75671772 -0.1103065 17.171875 -0.11816406 C20.86585567 -0.1353792 24.55894214 -0.17925999 28.25268555 -0.22338867 C30.59708 -0.2335151 32.94148206 -0.24203136 35.28588867 -0.2487793 C36.94392265 -0.27504143 36.94392265 -0.27504143 38.63545227 -0.30183411 C46.31575407 -0.28010887 46.31575407 -0.28010887 50.25341797 2.07861328 C53.6125989 5.94007645 53.22221973 9.31646935 53.2130785 14.21781635 C53.21543073 15.0628129 53.21778296 15.90780945 53.22020647 16.77841195 C53.22692134 19.64088692 53.2264375 22.50331675 53.22602844 25.36579895 C53.22932551 27.42636249 53.23305075 29.48692538 53.23716992 31.54748744 C53.24721574 37.23410355 53.25091085 42.9207091 53.25355923 48.60733283 C53.2574546 54.73083614 53.2670334 60.85433103 53.27577209 66.97782898 C53.29462197 81.07760582 53.30479537 95.17738073 53.31323278 109.27716663 C53.31743679 116.2414493 53.32265908 123.20573109 53.3279173 130.17001303 C53.34580817 153.99931269 53.36080549 177.8286126 53.3682375 201.65791798 C53.36871226 203.15435997 53.36918814 204.65080196 53.36966516 206.14724396 C53.36990153 206.88936002 53.37013791 207.63147608 53.37038145 208.39608051 C53.37158267 212.15614352 53.37279811 215.91620653 53.37402344 219.67626953 C53.37426359 220.42247131 53.37450374 221.16867309 53.37475116 221.93748704 C53.38264699 246.14010021 53.40608431 270.34266442 53.43857938 294.54525621 C53.47285507 320.12064676 53.4925865 345.69600866 53.49588174 371.27142256 C53.49629929 374.07744484 53.49677886 376.8834671 53.49730492 379.68948936 C53.49742811 380.38043449 53.4975513 381.07137961 53.49767822 381.78326247 C53.500013 392.91601266 53.51568831 404.0487061 53.53614676 415.18143604 C53.55637385 426.36544511 53.56156267 437.54938684 53.55237613 448.73341707 C53.54781442 454.79574301 53.54982591 460.85788419 53.56913757 466.92018509 C53.58664873 472.46495685 53.58587017 478.00940742 53.57024028 483.55418202 C53.56784579 485.56496891 53.57228203 487.57577736 53.58406893 489.58653114 C53.59905597 492.31097138 53.58960739 495.03425401 53.57384205 497.75866413 C53.58406426 498.54713009 53.59428646 499.33559605 53.60481843 500.14795491 C53.55749781 503.87116513 53.20718991 505.97745067 51.17292088 509.14064807 C47.93743856 512.28696484 46.10397638 512.30372555 41.69299603 512.31401634 C40.54257688 512.31909088 39.39215774 512.32416543 38.20687741 512.32939374 C36.29471243 512.33014038 36.29471243 512.33014038 34.34391785 512.3309021 C32.9845698 512.3349154 31.62522294 512.33935341 30.26587754 512.34418166 C26.51753081 512.35616757 22.76919696 512.36180026 19.0208348 512.36636281 C14.98323651 512.37231119 10.94565368 512.38392286 6.9080658 512.39465332 C-2.84871038 512.41919362 -12.60549167 512.43380621 -22.36228922 512.44671339 C-25.11664784 512.45042393 -27.87100595 512.45439726 -30.62536407 512.45846605 C-47.71900955 512.48369953 -64.8126558 512.50575889 -81.9063158 512.5181942 C-85.86706864 512.52112403 -89.82782145 512.52408568 -93.78857422 512.52709961 C-94.77303454 512.52784566 -95.75749486 512.52859171 -96.77178731 512.52936037 C-112.72772407 512.54202027 -128.68354955 512.57525101 -144.63943426 512.61690144 C-161.01001212 512.65928516 -177.38053296 512.68288505 -193.75116557 512.68811476 C-202.94717575 512.69153278 -212.143012 512.70333386 -221.33896828 512.7362175 C-229.1689311 512.76417019 -236.99868434 512.77523843 -244.82869319 512.76402204 C-248.8253449 512.75882318 -252.82155739 512.76180096 -256.81814575 512.78648758 C-260.47562821 512.8088915 -264.13235372 512.80831044 -267.78984865 512.78928371 C-269.74257944 512.78513676 -271.69531416 512.80569472 -273.64793235 512.82707059 C-283.09511067 512.74084079 -283.09511067 512.74084079 -286.18790722 509.77938271 C-288.76024814 505.91711987 -289.34216025 502.77581034 -288.92114258 498.17700195 C-286.90213907 494.06421703 -285.16729534 491.83459987 -280.92114258 490.17700195 C-278.42379546 489.92860496 -278.42379546 489.92860496 -275.55633163 489.9309063 C-274.46120506 489.92692455 -273.36607849 489.92294281 -272.23776627 489.91884041 C-270.43479395 489.9275784 -270.43479395 489.9275784 -268.59539795 489.93649292 C-266.68379883 489.93392487 -266.68379883 489.93392487 -264.73358154 489.93130493 C-261.18675498 489.92681259 -257.64004885 489.93485452 -254.09323758 489.94485649 C-250.21330351 489.95357664 -246.33337518 489.95066814 -242.45343399 489.94922066 C-234.91841294 489.94815638 -227.38343947 489.95740036 -219.84843065 489.97022332 C-211.13454474 489.98460926 -202.42068752 489.98621204 -193.70678711 489.98779297 C-170.69489804 489.99829861 -147.6830196 490.02622077 -124.67114258 490.05200195 C-73.27364258 490.09325195 -21.87614258 490.13450195 31.07885742 490.17700195 C31.07885742 377.97700195 31.07885742 265.77700195 31.07885742 150.17700195 C12.59885742 150.17700195 -5.88114258 150.17700195 -24.92114258 150.17700195 C-31.90263982 145.52267046 -31.90263982 145.52267046 -32.92114258 142.17700195 C-33.16165161 139.57000732 -33.16165161 139.57000732 -33.14819336 136.58227539 C-33.14795166 135.44580566 -33.14770996 134.30933594 -33.14746094 133.13842773 C-33.137229 131.94975098 -33.12699707 130.76107422 -33.11645508 129.53637695 C-33.11343384 127.89113037 -33.11343384 127.89113037 -33.11035156 126.21264648 C-33.0998915 122.11738907 -33.07196892 118.02219129 -33.04614258 113.92700195 C-33.00489258 104.76950195 -32.96364258 95.61200195 -32.92114258 86.17700195 C-60.64114258 86.17700195 -88.36114258 86.17700195 -116.92114258 86.17700195 C-116.92114258 100.03700195 -116.92114258 113.89700195 -116.92114258 128.17700195 C-105.29832939 128.01898898 -105.29832939 128.01898898 -93.67626953 127.81665039 C-92.21233285 127.80496101 -90.74838312 127.79476977 -89.28442383 127.78637695 C-88.53269897 127.76591309 -87.78097412 127.74544922 -87.00646973 127.72436523 C-83.25618304 127.72188283 -81.14971541 128.03033832 -77.9609375 130.07641602 C-74.94999773 133.17708935 -74.7900054 134.88517774 -74.74414062 139.09814453 C-74.73130539 140.12293411 -74.71847015 141.14772369 -74.70524597 142.2035675 C-74.69416557 143.87071053 -74.69416557 143.87071053 -74.68286133 145.5715332 C-74.67478958 146.71103928 -74.66671783 147.85054535 -74.65840149 149.02458191 C-74.64455271 151.43971226 -74.63383412 153.85486225 -74.62597656 156.27001953 C-74.60876142 159.9640002 -74.56488064 163.65708667 -74.52075195 167.35083008 C-74.51062552 169.69522453 -74.50210926 172.0396266 -74.49536133 174.3840332 C-74.47785324 175.48938919 -74.46034515 176.59474518 -74.44230652 177.7335968 C-74.46403176 185.4138986 -74.46403176 185.4138986 -76.82275391 189.3515625 C-80.56897196 192.6104889 -83.60363161 192.56739221 -88.43676758 192.5324707 C-90.92114258 192.17700195 -90.92114258 192.17700195 -93.98364258 189.86450195 C-97.1618339 185.45604302 -97.05583522 181.6721337 -97.01879883 176.4465332 C-97.01667641 175.32090218 -97.01667641 175.32090218 -97.01451111 174.17253113 C-97.00891817 171.77814735 -96.99636702 169.38385742 -96.98364258 166.98950195 C-96.97862666 165.36515435 -96.97406391 163.74080527 -96.9699707 162.11645508 C-96.95895106 158.13660126 -96.94169131 154.15681752 -96.92114258 150.17700195 C-98.66134438 150.18115002 -98.66134438 150.18115002 -100.43670177 150.18538189 C-127.97078648 150.25034371 -155.50486352 150.29981762 -183.03900902 150.33019794 C-186.42737333 150.3339501 -189.81573749 150.33783306 -193.20410156 150.34179688 C-194.21595264 150.34297727 -194.21595264 150.34297727 -195.24824516 150.34418152 C-206.17332217 150.3572384 -217.09835187 150.38089379 -228.02340081 150.40846034 C-239.23201355 150.43650669 -250.44060265 150.452952 -261.64925224 150.45926744 C-267.94561997 150.46318366 -274.24188035 150.47240898 -280.53821373 150.49419212 C-286.46180855 150.51452012 -292.38525156 150.52084318 -298.30887794 150.516325 C-300.48535105 150.51715185 -302.66182911 150.52313931 -304.83827209 150.53461838 C-307.80571449 150.54950459 -310.77258078 150.54596953 -313.74003601 150.5377655 C-314.60482612 150.54650403 -315.46961623 150.55524255 -316.36061209 150.56424588 C-322.07927698 150.52139803 -325.15039456 149.32327066 -329.70629883 145.79418945 C-331.83505826 142.9604068 -331.37919945 140.04313131 -331.28442383 136.6262207 C-330.77957272 133.22254712 -329.4343275 131.46843527 -326.92114258 129.17700195 C-323.93732942 127.68509537 -320.89068144 128.04347403 -317.61935425 128.05674744 C-316.47747986 128.0554658 -316.47747986 128.0554658 -315.31253731 128.05415827 C-312.74829235 128.05250425 -310.18411204 128.05802358 -307.61987305 128.06347656 C-305.78708905 128.06375848 -303.95430493 128.06360062 -302.121521 128.06303406 C-297.13418535 128.06274625 -292.14687359 128.06864031 -287.15954351 128.07560802 C-281.95183272 128.08184431 -276.74412142 128.08244557 -271.53640747 128.08363342 C-261.66958029 128.08674592 -251.80276413 128.09495822 -241.93594182 128.10498291 C-230.70515534 128.11614656 -219.47436835 128.12165514 -208.24357772 128.12667835 C-185.13609181 128.1371409 -162.02862102 128.15548538 -138.92114258 128.17700195 C-138.92114258 114.31700195 -138.92114258 100.45700195 -138.92114258 86.17700195 C-150.16982513 86.33489475 -150.16982513 86.33489475 -161.41772461 86.53735352 C-162.83812248 86.54904663 -164.25853385 86.55923699 -165.67895508 86.56762695 C-166.40397217 86.58809082 -167.12898926 86.60855469 -167.87597656 86.62963867 C-173.05498018 86.6331654 -175.95120999 85.46732962 -179.92114258 82.17700195 C-182.38897417 78.47525456 -182.6018699 75.4720672 -181.92114258 71.17700195 C-178.92114258 65.67700195 -178.92114258 65.67700195 -175.92114258 64.17700195 C-173.84206356 64.07422983 -171.75962783 64.03747208 -169.67802429 64.02983093 C-168.70682552 64.0243159 -168.70682552 64.0243159 -167.71600658 64.01868945 C-165.53657458 64.00763636 -163.35719023 64.00380605 -161.17773438 64 C-159.61906787 63.9937366 -158.06040286 63.98708991 -156.5017395 63.98008728 C-152.25992716 63.96266671 -148.0181261 63.95212275 -143.77628684 63.94388175 C-141.12723643 63.93873406 -138.47818954 63.93265824 -135.82914162 63.92637062 C-127.54405654 63.90731599 -119.25898039 63.89308517 -110.97387761 63.88475865 C-101.40414757 63.87498278 -91.83464863 63.84865537 -82.26500005 63.80825776 C-74.87215943 63.77811829 -67.47938513 63.76329186 -60.08648425 63.75997764 C-55.66915666 63.75762476 -51.25207587 63.74863357 -46.83481407 63.72351646 C-42.67906338 63.70026837 -38.52372255 63.69598919 -34.36792374 63.70627785 C-32.84291662 63.70677411 -31.31788956 63.70042697 -29.79294395 63.6867218 C-27.70987403 63.66904859 -25.62828238 63.67608431 -23.54521179 63.68925476 C-22.37989772 63.68686641 -21.21458364 63.68447805 -20.01395702 63.68201733 C-16.26614822 64.2818295 -14.61218421 65.55357139 -11.92114258 68.17700195 C-10.6025671 70.81415291 -10.80122554 72.77532835 -10.80761719 75.72827148 C-10.80769272 76.88932404 -10.80776825 78.05037659 -10.80784607 79.24661255 C-10.81300735 80.50496918 -10.81816864 81.76332581 -10.82348633 83.05981445 C-10.82560875 84.98662552 -10.82560875 84.98662552 -10.82777405 86.95236206 C-10.83159347 90.36857037 -10.84141884 93.78473621 -10.85247803 97.20092773 C-10.86270451 100.68643611 -10.86732908 104.17195154 -10.87231445 107.6574707 C-10.88251106 114.49735197 -10.90208407 121.33711659 -10.92114258 128.17700195 C2.93885742 128.17700195 16.79885742 128.17700195 31.07885742 128.17700195 C31.07885742 93.19700195 31.07885742 58.21700195 31.07885742 22.17700195 C19.85885742 22.17700195 8.63885742 22.17700195 -2.92114258 22.17700195 C-9.27998163 18.36169852 -9.27998163 18.36169852 -10.92114258 16.17700195 C-11.83020845 11.34503019 -11.61970797 7.3179921 -9.04614258 3.11450195 C-5.89640666 0.24268391 -4.16877513 0.04538368 0 0 Z " fill="#000000" transform="translate(458.921142578125,-0.177001953125)"/>
    <path d="M0 0 C0.9715654 -0.0071553 1.9431308 -0.01431061 2.94413757 -0.02168274 C4.01377747 -0.02437164 5.08341736 -0.02706055 6.18547058 -0.02983093 C7.87098274 -0.03968773 7.87098274 -0.03968773 9.59054565 -0.04974365 C13.3216508 -0.06950933 17.05271566 -0.08114596 20.78385925 -0.09111023 C22.05556158 -0.09518576 23.32726391 -0.09926128 24.63750267 -0.10346031 C30.67258555 -0.12218 36.70764391 -0.13674323 42.74274808 -0.14507228 C49.70841379 -0.15484437 56.6737617 -0.18116255 63.63931543 -0.22157317 C69.67279645 -0.25537466 75.7061232 -0.26721749 81.73970604 -0.27127647 C84.30618636 -0.27615686 86.87266293 -0.28781179 89.43908119 -0.30631447 C93.02798076 -0.33058226 96.61604586 -0.32976312 100.20500183 -0.32279968 C101.26856903 -0.33560974 102.33213623 -0.3484198 103.42793274 -0.36161804 C110.63545684 -0.31055023 110.63545684 -0.31055023 114.52584839 2.05154419 C117.83881736 5.77723381 117.77981457 8.81633073 117.74479675 13.66279602 C117.389328 16.14717102 117.389328 16.14717102 115.076828 19.20967102 C111.72627563 21.62518552 109.33566806 22.27258247 105.30810547 22.26742554 C104.06503883 22.26948753 104.06503883 22.26948753 102.79685974 22.27159119 C101.89127319 22.26799591 100.98568665 22.26440063 100.05265808 22.26069641 C98.61822609 22.26091545 98.61822609 22.26091545 97.15481567 22.26113892 C93.98947391 22.26044146 90.82419076 22.25265682 87.65885925 22.24482727 C85.46596305 22.2429625 83.27306644 22.24153887 81.08016968 22.24053955 C75.30485385 22.23671904 69.52956311 22.2268927 63.7542572 22.21583557 C56.82677479 22.20381427 49.89928399 22.19921699 42.97179413 22.19338226 C32.44428796 22.18368073 21.91683687 22.16452088 11.389328 22.14717102 C11.389328 49.86717102 11.389328 77.58717102 11.389328 106.14717102 C39.109328 106.14717102 66.829328 106.14717102 95.389328 106.14717102 C95.389328 101.85717102 95.389328 97.56717102 95.389328 93.14717102 C97.36976018 89.1180159 98.68548777 87.61639784 102.389328 85.14717102 C107.30838875 84.66332898 109.44781535 84.63361866 113.826828 87.02217102 C116.389328 89.14717102 116.389328 89.14717102 117.389328 91.14717102 C117.64773589 95.51729385 117.66036182 99.891228 117.68449402 104.26802063 C117.70168249 106.44127341 117.74556607 108.61299448 117.78971863 110.7858429 C117.79984826 112.17320152 117.80836352 113.56057306 117.81510925 114.94795227 C117.83698303 116.83767761 117.83698303 116.83767761 117.85929871 118.76557922 C117.30887373 122.72606562 116.17731623 124.34036915 113.389328 127.14717102 C110.98268841 128.35049082 109.4671708 128.2807787 106.77865601 128.29434204 C105.80709061 128.30149734 104.83552521 128.30865265 103.83451843 128.31602478 C102.76487854 128.31871368 101.69523865 128.32140259 100.59318542 128.32417297 C99.46951065 128.33074417 98.34583588 128.33731537 97.18811035 128.34408569 C93.45700521 128.36385137 89.72594035 128.37548801 85.99479675 128.38545227 C84.72309443 128.3895278 83.4513921 128.39360332 82.14115334 128.39780235 C76.10607045 128.41652204 70.0710121 128.43108527 64.03590792 128.43941432 C57.07024221 128.44918641 50.10489431 128.47550459 43.13934058 128.51591522 C37.10585956 128.5497167 31.0725328 128.56155953 25.03894997 128.56561852 C22.47246965 128.5704989 19.90599308 128.58215383 17.33957481 128.60065651 C13.75067524 128.6249243 10.16261015 128.62410516 6.57365417 128.61714172 C5.51008698 128.62995178 4.44651978 128.64276184 3.35072327 128.65596008 C-3.85680083 128.60489227 -3.85680083 128.60489227 -7.74719238 126.24279785 C-10.4657082 123.18561673 -10.73767313 121.5345581 -10.75784302 117.53649902 C-10.76499832 116.56493362 -10.77215363 115.59336823 -10.77952576 114.59236145 C-10.78355911 112.98790161 -10.78355911 112.98790161 -10.78767395 111.35102844 C-10.79424515 110.22735367 -10.80081635 109.10367889 -10.80758667 107.94595337 C-10.82735235 104.21484822 -10.83898898 100.48378336 -10.84895325 96.75263977 C-10.85302877 95.48093744 -10.8571043 94.20923512 -10.86130333 92.89899635 C-10.88002301 86.86391347 -10.89458625 80.82885512 -10.9029153 74.79375094 C-10.91268738 67.82808523 -10.93900557 60.86273732 -10.97941619 53.8971836 C-11.01321768 47.86370257 -11.02506051 41.83037582 -11.02911949 35.79679298 C-11.03399987 33.23031267 -11.0456548 30.66383609 -11.06415749 28.09741783 C-11.08842528 24.50851826 -11.08760614 20.92045316 -11.0806427 17.33149719 C-11.09345276 16.26792999 -11.10626282 15.20436279 -11.11946106 14.10856628 C-11.06839324 6.90104219 -11.06839324 6.90104219 -8.70629883 3.01065063 C-5.64911771 0.29213481 -3.99805907 0.02016988 0 0 Z " fill="#000000" transform="translate(202.6106719970703,191.8528289794922)"/>
    <path d="M0 0 C5.5 3 5.5 3 7 6 C7.1047321 8.89864371 7.14779366 11.77362443 7.14717102 14.67280579 C7.15084771 15.58161898 7.1545244 16.49043218 7.1583125 17.42678517 C7.16937929 20.49066513 7.17319823 23.55451122 7.17700195 26.6184082 C7.18326428 28.80760812 7.18991087 30.99680697 7.19691467 33.18600464 C7.21434451 39.14677193 7.22488158 45.10753118 7.2331202 51.06831765 C7.23826555 54.78942966 7.24434146 58.51053916 7.25063133 62.2316494 C7.26859416 73.19786427 7.28297317 84.16407451 7.29080774 95.13030149 C7.29224625 97.13756754 7.29369762 99.14483358 7.29516602 101.15209961 C7.29564976 101.81656415 7.2961335 102.48102869 7.2966319 103.16562852 C7.30493416 113.93217653 7.33027424 124.69861351 7.36274669 135.46511302 C7.39580431 146.51559516 7.41349475 157.56601795 7.41702431 168.61654919 C7.41937929 174.82237001 7.42839803 181.02801535 7.45348549 187.23378944 C7.47669924 193.07045436 7.48102638 198.90682742 7.47072411 204.74352646 C7.47022702 206.88775158 7.47659797 209.03199073 7.49028015 211.17617226 C7.50789519 214.0998825 7.50094404 217.0225335 7.48774719 219.94624329 C7.49871644 220.79799631 7.50968568 221.64974933 7.52098733 222.52731305 C7.47700217 226.55383873 7.30379959 228.52116135 5.0945158 232.00335979 C1.47275371 235.45587889 -1.01099786 235.14391838 -5.94067383 235.19287109 C-6.65469864 235.20104858 -7.36872345 235.20922607 -8.10438538 235.21765137 C-10.47192545 235.24250302 -12.83940557 235.2590208 -15.20703125 235.2734375 C-16.01536596 235.27876118 -16.82370068 235.28408485 -17.65653038 235.28956985 C-21.93515449 235.31630064 -26.21374943 235.3356756 -30.49243164 235.35009766 C-34.91121769 235.36674436 -39.32925772 235.41152169 -43.74776173 235.4624691 C-47.14585728 235.49613005 -50.5437755 235.50767375 -53.94202232 235.51332474 C-55.57073352 235.52004062 -57.19943291 235.53527165 -58.82798195 235.55921555 C-61.10965324 235.59084751 -63.38930946 235.59090812 -65.67114258 235.58349609 C-67.61734245 235.59562637 -67.61734245 235.59562637 -69.6028595 235.60800171 C-73.86869297 234.84452606 -75.32135321 233.32945652 -78 230 C-79.13781599 226.9850498 -79.29321813 224.20284422 -79 221 C-76.98303 216.89135741 -75.24887809 214.64555971 -71 213 C-68.39300537 212.75949097 -68.39300537 212.75949097 -65.40527344 212.77294922 C-63.72398346 212.77317581 -63.72398346 212.77317581 -62.00872803 212.77340698 C-60.80444153 212.78372955 -59.60015503 212.79405212 -58.359375 212.8046875 C-56.50339691 212.80893234 -56.50339691 212.80893234 -54.60992432 212.81326294 C-51.32848459 212.822558 -48.04724246 212.84051295 -44.76586914 212.8626709 C-41.41424378 212.88316952 -38.06260993 212.89210276 -34.7109375 212.90234375 C-28.14054777 212.9243997 -21.57029004 212.95787418 -15 213 C-15.00368717 211.94901564 -15.00737434 210.89803127 -15.01117325 209.8151989 C-15.09994028 184.25177653 -15.1656882 158.68837414 -15.20724869 133.12483025 C-15.22788083 120.76252645 -15.25601403 108.40032442 -15.30175781 96.03808594 C-15.34160544 85.2641522 -15.36742807 74.49029216 -15.37635398 63.71628678 C-15.3815722 58.01061324 -15.39385075 52.30515054 -15.42292023 46.59954453 C-15.45005638 41.22993176 -15.45844855 35.86061683 -15.45243073 30.490942 C-15.45353176 28.51967564 -15.46149623 26.5483994 -15.4768219 24.57719231 C-15.49672158 21.88580192 -15.49193929 19.19553624 -15.48101807 16.50411987 C-15.49266943 15.72395252 -15.5043208 14.94378517 -15.51632524 14.13997638 C-15.45933056 8.94415244 -14.313754 5.98352242 -11 2 C-7.29825261 -0.4678316 -4.29506525 -0.68072732 0 0 Z " fill="#000000" transform="translate(441,213)"/>
</svg>
