<svg xmlns="http://www.w3.org/2000/svg" version="1.1" xmlns:xlink="http://www.w3.org/1999/xlink" xmlns:svgjs="http://svgjs.dev/svgjs" viewBox="0 0 800 800"><g transform="matrix(1,0,0,1,0,0)"><rect width="54" height="54" x="657" y="657" stroke-width="6.5" stroke="#ffffff" fill="none" opacity="0.05" transform="rotate(125, 400, 400)"></rect><rect width="74.5" height="74.5" x="623.0833333333334" y="623.0833333333334" stroke-width="7.291666666666667" stroke="#ffffff" fill="none" opacity="0.12916666666666665" transform="rotate(114.58333333333333, 400, 400)"></rect><rect width="95" height="95" x="589.1666666666666" y="589.1666666666666" stroke-width="8.083333333333334" stroke="#ffffff" fill="none" opacity="0.20833333333333331" transform="rotate(104.16666666666667, 400, 400)"></rect><rect width="115.5" height="115.5" x="555.25" y="555.25" stroke-width="8.875" stroke="#ffffff" fill="none" opacity="0.2875" transform="rotate(93.75, 400, 400)"></rect><rect width="136" height="136" x="521.3333333333334" y="521.3333333333334" stroke-width="9.666666666666666" stroke="#ffffff" fill="none" opacity="0.36666666666666664" transform="rotate(83.33333333333334, 400, 400)"></rect><rect width="156.5" height="156.5" x="487.41666666666663" y="487.41666666666663" stroke-width="10.458333333333332" stroke="#ffffff" fill="none" opacity="0.4458333333333333" transform="rotate(72.91666666666667, 400, 400)"></rect><rect width="177" height="177" x="453.5" y="453.5" stroke-width="11.25" stroke="#ffffff" fill="none" opacity="0.525" transform="rotate(62.5, 400, 400)"></rect><rect width="197.5" height="197.5" x="419.58333333333326" y="419.58333333333326" stroke-width="12.041666666666666" stroke="#ffffff" fill="none" opacity="0.6041666666666667" transform="rotate(52.08333333333334, 400, 400)"></rect><rect width="218" height="218" x="385.66666666666663" y="385.66666666666663" stroke-width="12.833333333333332" stroke="#ffffff" fill="none" opacity="0.6833333333333333" transform="rotate(41.66666666666667, 400, 400)"></rect><rect width="238.5" height="238.5" x="351.75" y="351.75" stroke-width="13.625" stroke="#ffffff" fill="none" opacity="0.7625" transform="rotate(31.25, 400, 400)"></rect><rect width="259" height="259" x="317.8333333333333" y="317.8333333333333" stroke-width="14.416666666666666" stroke="#ffffff" fill="none" opacity="0.8416666666666667" transform="rotate(20.833333333333343, 400, 400)"></rect><rect width="279.5" height="279.5" x="283.91666666666663" y="283.91666666666663" stroke-width="15.208333333333332" stroke="#ffffff" fill="none" opacity="0.9208333333333334" transform="rotate(10.416666666666671, 400, 400)"></rect><rect width="300" height="300" x="250" y="250" stroke-width="16" stroke="#ffffff" fill="none" opacity="1" transform="rotate(0, 400, 400)"></rect></g></svg>